<?xml version="1.0" encoding="UTF-8"?>
<svg xmlns="http://www.w3.org/2000/svg" width="200.2648mm" height="41.6700mm" viewBox="0 0 200.2648 41.6700">
  <polygon points="200.2648,22.3707 199.4249,17.0205 197.4501,14.0102 195.1743,12.9606 190.2460,12.2193 177.7438,13.0037 166.6890,15.2151 146.4107,17.4471 130.0813,18.5391 96.0282,19.0696 80.4179,18.3543 68.2849,15.3025 59.3973,10.3670 52.9979,5.4274 46.8268,2.4410 39.5296,0.5846 33.8894,0.0000 22.9142,0.2559 10.5923,4.0406 2.7055,11.4112 0.0000,19.9676 0.4491,24.2418 2.5496,29.9381 10.2833,37.3506 22.5314,41.3062 29.1476,41.6700 39.2265,41.2017 46.5257,39.3862 52.7733,36.5203 59.2484,31.6248 68.2113,26.7979 80.3438,23.9160 97.2368,23.3525 130.0090,24.3335 146.3407,25.5777 166.6240,28.0951 177.6081,30.4080 190.1134,31.3625 197.1632,29.7652 199.2836,26.8960" fill="none" stroke="black" stroke-width="0.1" />
</svg>
