<?xml version="1.0" encoding="UTF-8"?>
<svg xmlns="http://www.w3.org/2000/svg" width="73.9263mm" height="14.1974mm" viewBox="0 0 73.9263 14.1974">
  <polygon points="73.9263,7.3636 73.5991,5.8011 72.8437,4.6437 71.8912,3.9517 69.7426,3.4888 56.5369,5.1808 40.1113,6.0274 29.8411,6.0955 24.8057,5.2945 21.7824,4.0609 19.7272,2.6136 16.3050,1.0300 11.3338,0.0000 6.4689,0.6198 3.2540,2.2609 1.2508,3.9730 0.4305,5.3065 0.0000,6.8404 0.1561,8.1101 1.0217,9.8605 1.8396,10.8612 3.2633,11.8978 6.1576,13.5163 10.7282,14.1974 16.2472,13.1598 18.0693,12.1371 19.9153,11.4895 21.4977,10.2563 25.0305,8.8204 29.5191,8.1507 31.0378,8.2776 31.8557,8.0736 33.0784,8.2951 36.2383,8.0889 47.9050,8.5334 50.2677,8.8315 51.9241,8.7234 66.0827,10.1375 69.7574,10.8030 72.1401,10.1952 72.7895,9.7003 73.6169,8.4396" fill="none" stroke="black" stroke-width="0.1" />
</svg>
