<?xml version="1.0" encoding="UTF-8" standalone="no"?>
<!DOCTYPE svg PUBLIC "-//W3C//DTD SVG 1.1//EN"
 "http://www.w3.org/Graphics/SVG/1.1/DTD/svg11.dtd">
<!-- Generated by graphviz version 2.43.0 (0)
 -->
<!-- Title: pipeline Pages: 1 -->
<svg width="2400pt" height="229pt"
 viewBox="0.00 0.00 2400.00 229.00" xmlns="http://www.w3.org/2000/svg" xmlns:xlink="http://www.w3.org/1999/xlink">
<g id="graph0" class="graph" transform="scale(1 1) rotate(0) translate(4 225)">
<title>pipeline</title>
<g id="clust1" class="cluster">
<title>cluster_capture</title>
<path fill="transparent" stroke="#aaaaaa" d="M20,-91C20,-91 793,-91 793,-91 799,-91 805,-97 805,-103 805,-103 805,-201 805,-201 805,-207 799,-213 793,-213 793,-213 20,-213 20,-213 14,-213 8,-207 8,-201 8,-201 8,-103 8,-103 8,-97 14,-91 20,-91"/>
<text text-anchor="middle" x="406.5" y="-199.4" font-family="Helvetica,sans-Serif" font-size="12.00" fill="#333333">per photo &#160;— &#160;silhouette.py</text>
</g>
<g id="clust2" class="cluster">
<title>cluster_legend</title>
<path fill="transparent" stroke="#cccccc" d="M2042,-58C2042,-58 2372,-58 2372,-58 2378,-58 2384,-64 2384,-70 2384,-70 2384,-117 2384,-117 2384,-123 2378,-129 2372,-129 2372,-129 2042,-129 2042,-129 2036,-129 2030,-123 2030,-117 2030,-117 2030,-70 2030,-70 2030,-64 2036,-58 2042,-58"/>
<text text-anchor="middle" x="2207" y="-117" font-family="Helvetica,sans-Serif" font-size="10.00" fill="#666666">kind of problem</text>
</g>
<!-- photo -->
<g id="node1" class="node">
<title>photo</title>
<polygon fill="#f2f2f2" stroke="#888888" points="70,-169 67,-173 46,-173 43,-169 16,-169 16,-133 70,-133 70,-169"/>
<text text-anchor="middle" x="43" y="-148.5" font-family="Helvetica,sans-Serif" font-size="10.00">photo</text>
</g>
<!-- segment -->
<g id="node2" class="node">
<title>segment</title>
<path fill="#e6f2e8" stroke="#888888" d="M187,-138C187,-138 123,-138 123,-138 117,-138 111,-132 111,-126 111,-126 111,-114 111,-114 111,-108 117,-102 123,-102 123,-102 187,-102 187,-102 193,-102 199,-108 199,-114 199,-114 199,-126 199,-126 199,-132 193,-138 187,-138"/>
<text text-anchor="middle" x="155" y="-123" font-family="Helvetica,sans-Serif" font-size="10.00">SAM2</text>
<text text-anchor="middle" x="155" y="-112" font-family="Helvetica,sans-Serif" font-size="10.00">segmentation</text>
</g>
<!-- photo&#45;&gt;segment -->
<g id="edge1" class="edge">
<title>photo&#45;&gt;segment</title>
<path fill="none" stroke="#555555" d="M70.07,-143.65C80.27,-140.78 92.32,-137.38 104.06,-134.07"/>
<polygon fill="#555555" stroke="#555555" points="104.85,-136.4 110.92,-132.14 103.52,-131.68 104.85,-136.4"/>
</g>
<!-- calibrate -->
<g id="node6" class="node">
<title>calibrate</title>
<path fill="#e6f2e8" stroke="#888888" d="M279,-182C279,-182 231,-182 231,-182 225,-182 219,-176 219,-170 219,-170 219,-158 219,-158 219,-152 225,-146 231,-146 231,-146 279,-146 279,-146 285,-146 291,-152 291,-158 291,-158 291,-170 291,-170 291,-176 285,-182 279,-182"/>
<text text-anchor="middle" x="255" y="-167" font-family="Helvetica,sans-Serif" font-size="10.00">ArUco</text>
<text text-anchor="middle" x="255" y="-156" font-family="Helvetica,sans-Serif" font-size="10.00">calibration</text>
</g>
<!-- photo&#45;&gt;calibrate -->
<g id="edge6" class="edge">
<title>photo&#45;&gt;calibrate</title>
<path fill="none" stroke="#555555" d="M70.17,-152.62C105.61,-154.81 169.3,-158.76 211.61,-161.38"/>
<polygon fill="#555555" stroke="#555555" points="211.59,-163.83 218.73,-161.82 211.89,-158.94 211.59,-163.83"/>
</g>
<!-- morphology -->
<g id="node3" class="node">
<title>morphology</title>
<path fill="#e6f2e8" stroke="#888888" d="M378,-137C378,-137 323,-137 323,-137 317,-137 311,-131 311,-125 311,-125 311,-113 311,-113 311,-107 317,-101 323,-101 323,-101 378,-101 378,-101 384,-101 390,-107 390,-113 390,-113 390,-125 390,-125 390,-131 384,-137 378,-137"/>
<text text-anchor="middle" x="350.5" y="-116.5" font-family="Helvetica,sans-Serif" font-size="10.00">morphology</text>
</g>
<!-- segment&#45;&gt;morphology -->
<g id="edge2" class="edge">
<title>segment&#45;&gt;morphology</title>
<path fill="none" stroke="#555555" d="M199.43,-119.78C230.37,-119.62 271.9,-119.4 303.43,-119.24"/>
<polygon fill="#555555" stroke="#555555" points="303.82,-121.69 310.81,-119.2 303.8,-116.79 303.82,-121.69"/>
</g>
<!-- trace -->
<g id="node4" class="node">
<title>trace</title>
<path fill="#e6f2e8" stroke="#888888" d="M480.5,-135C480.5,-135 447.5,-135 447.5,-135 441.5,-135 435.5,-129 435.5,-123 435.5,-123 435.5,-111 435.5,-111 435.5,-105 441.5,-99 447.5,-99 447.5,-99 480.5,-99 480.5,-99 486.5,-99 492.5,-105 492.5,-111 492.5,-111 492.5,-123 492.5,-123 492.5,-129 486.5,-135 480.5,-135"/>
<text text-anchor="middle" x="464" y="-120" font-family="Helvetica,sans-Serif" font-size="10.00">contour</text>
<text text-anchor="middle" x="464" y="-109" font-family="Helvetica,sans-Serif" font-size="10.00">finding</text>
</g>
<!-- morphology&#45;&gt;trace -->
<g id="edge3" class="edge">
<title>morphology&#45;&gt;trace</title>
<path fill="none" stroke="#555555" d="M390.18,-118.31C402.48,-118.09 415.99,-117.84 428.01,-117.63"/>
<polygon fill="#555555" stroke="#555555" points="428.32,-120.07 435.27,-117.5 428.23,-115.17 428.32,-120.07"/>
</g>
<!-- select -->
<g id="node5" class="node">
<title>select</title>
<path fill="#f2f2f2" stroke="#888888" d="M651,-149C651,-149 585,-149 585,-149 579,-149 573,-143 573,-137 573,-137 573,-125 573,-125 573,-119 579,-113 585,-113 585,-113 651,-113 651,-113 657,-113 663,-119 663,-125 663,-125 663,-137 663,-137 663,-143 657,-149 651,-149"/>
<text text-anchor="middle" x="618" y="-134" font-family="Helvetica,sans-Serif" font-size="10.00">selection</text>
<text text-anchor="middle" x="618" y="-123" font-family="Helvetica,sans-Serif" font-size="10.00">click to toggle</text>
</g>
<!-- trace&#45;&gt;select -->
<g id="edge4" class="edge">
<title>trace&#45;&gt;select</title>
<path fill="none" stroke="#555555" d="M492.53,-119.54C512.93,-121.41 541.32,-124.03 565.85,-126.29"/>
<polygon fill="#555555" stroke="#555555" points="565.79,-128.74 572.98,-126.95 566.24,-123.86 565.79,-128.74"/>
<text text-anchor="middle" x="535" y="-126.2" font-family="Helvetica,sans-Serif" font-size="8.50" fill="#444444"> K found</text>
</g>
<!-- rectify -->
<g id="node7" class="node">
<title>rectify</title>
<path fill="#e6f2e8" stroke="#888888" d="M785,-170C785,-170 755,-170 755,-170 749,-170 743,-164 743,-158 743,-158 743,-146 743,-146 743,-140 749,-134 755,-134 755,-134 785,-134 785,-134 791,-134 797,-140 797,-146 797,-146 797,-158 797,-158 797,-164 791,-170 785,-170"/>
<text text-anchor="middle" x="770" y="-155" font-family="Helvetica,sans-Serif" font-size="10.00">rectify</text>
<text text-anchor="middle" x="770" y="-144" font-family="Helvetica,sans-Serif" font-size="10.00">to mm</text>
</g>
<!-- select&#45;&gt;rectify -->
<g id="edge5" class="edge">
<title>select&#45;&gt;rectify</title>
<path fill="none" stroke="#555555" d="M663.19,-137.19C686.49,-140.45 714.58,-144.38 735.96,-147.37"/>
<polygon fill="#555555" stroke="#555555" points="735.66,-149.81 742.94,-148.35 736.34,-144.95 735.66,-149.81"/>
<text text-anchor="middle" x="703" y="-147.2" font-family="Helvetica,sans-Serif" font-size="8.50" fill="#444444"> N picked</text>
</g>
<!-- calibrate&#45;&gt;rectify -->
<g id="edge7" class="edge">
<title>calibrate&#45;&gt;rectify</title>
<path fill="none" stroke="#555555" d="M291.12,-167.94C322.3,-171.1 369.12,-175 410,-175 410,-175 410,-175 619,-175 659.61,-175 705.7,-166.66 735.94,-160.03"/>
<polygon fill="#555555" stroke="#555555" points="736.61,-162.39 742.9,-158.47 735.54,-157.61 736.61,-162.39"/>
<text text-anchor="middle" x="464" y="-177.2" font-family="Helvetica,sans-Serif" font-size="8.50" fill="#444444"> 1 homography</text>
</g>
<!-- dump -->
<g id="node8" class="node">
<title>dump</title>
<polygon fill="#f2f2f2" stroke="#888888" points="997,-170 994,-174 973,-174 970,-170 909,-170 909,-134 997,-134 997,-170"/>
<text text-anchor="middle" x="953" y="-155" font-family="Helvetica,sans-Serif" font-size="10.00">contour dump</text>
<text text-anchor="middle" x="953" y="-144" font-family="Helvetica,sans-Serif" font-size="10.00">.json / .svg</text>
</g>
<!-- rectify&#45;&gt;dump -->
<g id="edge8" class="edge">
<title>rectify&#45;&gt;dump</title>
<path fill="none" stroke="#555555" d="M797.32,-152C824.6,-152 867.9,-152 901.76,-152"/>
<polygon fill="#555555" stroke="#555555" points="901.83,-154.45 908.83,-152 901.83,-149.55 901.83,-154.45"/>
<text text-anchor="middle" x="853" y="-154.2" font-family="Helvetica,sans-Serif" font-size="8.50" fill="#444444"> N contours, mm</text>
</g>
<!-- build -->
<g id="node9" class="node">
<title>build</title>
<path fill="#e6f2e8" stroke="#888888" d="M1283,-174.5C1283,-174.5 1155,-174.5 1155,-174.5 1149,-174.5 1143,-168.5 1143,-162.5 1143,-162.5 1143,-141.5 1143,-141.5 1143,-135.5 1149,-129.5 1155,-129.5 1155,-129.5 1283,-129.5 1283,-129.5 1289,-129.5 1295,-135.5 1295,-141.5 1295,-141.5 1295,-162.5 1295,-162.5 1295,-168.5 1289,-174.5 1283,-174.5"/>
<text text-anchor="middle" x="1219" y="-160.5" font-family="Helvetica,sans-Serif" font-size="10.00">BuildPart</text>
<text text-anchor="middle" x="1219" y="-149.5" font-family="Helvetica,sans-Serif" font-size="10.00">PCA frame + distance field</text>
<text text-anchor="middle" x="1219" y="-138.5" font-family="Helvetica,sans-Serif" font-size="10.00">pure, per contour</text>
</g>
<!-- dump&#45;&gt;build -->
<g id="edge9" class="edge">
<title>dump&#45;&gt;build</title>
<path fill="none" stroke="#555555" d="M997,-152C1034.53,-152 1090.01,-152 1135.99,-152"/>
<polygon fill="#555555" stroke="#555555" points="1136,-154.45 1143,-152 1136,-149.55 1136,-154.45"/>
<text text-anchor="start" x="1017" y="-163.2" font-family="Helvetica,sans-Serif" font-size="8.50" fill="#444444"> N contours,</text>
<text text-anchor="start" x="1017" y="-154.2" font-family="Helvetica,sans-Serif" font-size="8.50" fill="#444444"> any number of sessions</text>
</g>
<!-- group -->
<g id="node10" class="node">
<title>group</title>
<path fill="#dee7f6" stroke="#888888" d="M1491,-174.5C1491,-174.5 1381,-174.5 1381,-174.5 1375,-174.5 1369,-168.5 1369,-162.5 1369,-162.5 1369,-141.5 1369,-141.5 1369,-135.5 1375,-129.5 1381,-129.5 1381,-129.5 1491,-129.5 1491,-129.5 1497,-129.5 1503,-135.5 1503,-141.5 1503,-141.5 1503,-162.5 1503,-162.5 1503,-168.5 1497,-174.5 1491,-174.5"/>
<text text-anchor="middle" x="1436" y="-160.5" font-family="Helvetica,sans-Serif" font-size="10.00">grouping</text>
<text text-anchor="middle" x="1436" y="-149.5" font-family="Helvetica,sans-Serif" font-size="10.00">which parts share a bin</text>
<text text-anchor="middle" x="1436" y="-138.5" font-family="Helvetica,sans-Serif" font-size="10.00">FFD + local search</text>
</g>
<!-- build&#45;&gt;group -->
<g id="edge10" class="edge">
<title>build&#45;&gt;group</title>
<path fill="none" stroke="#555555" d="M1295.2,-152C1316.74,-152 1340.19,-152 1361.62,-152"/>
<polygon fill="#555555" stroke="#555555" points="1361.8,-154.45 1368.8,-152 1361.8,-149.55 1361.8,-154.45"/>
<text text-anchor="middle" x="1332" y="-154.2" font-family="Helvetica,sans-Serif" font-size="8.50" fill="#444444"> N parts</text>
</g>
<!-- pack -->
<g id="node11" class="node">
<title>pack</title>
<path fill="#dee7f6" stroke="#888888" d="M1766,-196.5C1766,-196.5 1652,-196.5 1652,-196.5 1646,-196.5 1640,-190.5 1640,-184.5 1640,-184.5 1640,-163.5 1640,-163.5 1640,-157.5 1646,-151.5 1652,-151.5 1652,-151.5 1766,-151.5 1766,-151.5 1772,-151.5 1778,-157.5 1778,-163.5 1778,-163.5 1778,-184.5 1778,-184.5 1778,-190.5 1772,-196.5 1766,-196.5"/>
<text text-anchor="middle" x="1709" y="-182.5" font-family="Helvetica,sans-Serif" font-size="10.00">arrangement</text>
<text text-anchor="middle" x="1709" y="-171.5" font-family="Helvetica,sans-Serif" font-size="10.00">which grid, where in it</text>
<text text-anchor="middle" x="1709" y="-160.5" font-family="Helvetica,sans-Serif" font-size="10.00">grid search + relaxation</text>
</g>
<!-- group&#45;&gt;pack -->
<g id="edge12" class="edge">
<title>group&#45;&gt;pack</title>
<path fill="none" stroke="#555555" stroke-dasharray="5,2" d="M1503.29,-157.38C1542.32,-160.55 1591.81,-164.57 1632.36,-167.86"/>
<polygon fill="#555555" stroke="#555555" points="1632.39,-170.32 1639.56,-168.44 1632.78,-165.44 1632.39,-170.32"/>
<text text-anchor="start" x="1547" y="-177.2" font-family="Helvetica,sans-Serif" font-size="8.50" fill="#444444"> is this set</text>
<text text-anchor="start" x="1547" y="-168.2" font-family="Helvetica,sans-Serif" font-size="8.50" fill="#444444"> feasible?</text>
</g>
<!-- assign -->
<g id="node12" class="node">
<title>assign</title>
<path fill="#dee7f6" stroke="#888888" d="M1771,-106.5C1771,-106.5 1647,-106.5 1647,-106.5 1641,-106.5 1635,-100.5 1635,-94.5 1635,-94.5 1635,-73.5 1635,-73.5 1635,-67.5 1641,-61.5 1647,-61.5 1647,-61.5 1771,-61.5 1771,-61.5 1777,-61.5 1783,-67.5 1783,-73.5 1783,-73.5 1783,-94.5 1783,-94.5 1783,-100.5 1777,-106.5 1771,-106.5"/>
<text text-anchor="middle" x="1709" y="-92.5" font-family="Helvetica,sans-Serif" font-size="10.00">drawer assignment</text>
<text text-anchor="middle" x="1709" y="-81.5" font-family="Helvetica,sans-Serif" font-size="10.00">which bins share a drawer</text>
<text text-anchor="middle" x="1709" y="-70.5" font-family="Helvetica,sans-Serif" font-size="10.00">exact</text>
</g>
<!-- group&#45;&gt;assign -->
<g id="edge11" class="edge">
<title>group&#45;&gt;assign</title>
<path fill="none" stroke="#555555" d="M1503.29,-135.37C1540.92,-125.92 1588.27,-114.04 1627.96,-104.08"/>
<polygon fill="#555555" stroke="#555555" points="1628.57,-106.46 1634.77,-102.38 1627.38,-101.7 1628.57,-106.46"/>
<text text-anchor="start" x="1536.5" y="-141.2" font-family="Helvetica,sans-Serif" font-size="8.50" fill="#444444"> M bins</text>
<text text-anchor="start" x="1536.5" y="-132.2" font-family="Helvetica,sans-Serif" font-size="8.50" fill="#444444"> footprints only</text>
</g>
<!-- pack&#45;&gt;group -->
<g id="edge13" class="edge">
<title>pack&#45;&gt;group</title>
<path fill="none" stroke="#555555" stroke-dasharray="5,2" d="M1677.64,-151.34C1664.32,-141.14 1648.64,-128.76 1635,-117 1625.71,-109 1626.39,-102.55 1615,-98 1577.03,-82.84 1562.29,-86.69 1523,-98 1504.01,-103.47 1485.15,-114.51 1469.96,-125.18"/>
<polygon fill="#555555" stroke="#555555" points="1468.36,-123.32 1464.11,-129.4 1471.22,-127.29 1468.36,-123.32"/>
<text text-anchor="middle" x="1569" y="-100.2" font-family="Helvetica,sans-Serif" font-size="8.50" fill="#444444"> cells</text>
</g>
<!-- preview -->
<g id="node14" class="node">
<title>preview</title>
<polygon fill="#f2f2f2" stroke="#888888" points="1997,-218 1994,-222 1973,-222 1970,-218 1875,-218 1875,-182 1997,-182 1997,-218"/>
<text text-anchor="middle" x="1936" y="-203" font-family="Helvetica,sans-Serif" font-size="10.00">preview</text>
<text text-anchor="middle" x="1936" y="-192" font-family="Helvetica,sans-Serif" font-size="10.00">svg + pdf, true scale</text>
</g>
<!-- pack&#45;&gt;preview -->
<g id="edge16" class="edge">
<title>pack&#45;&gt;preview</title>
<path fill="none" stroke="#555555" d="M1778.12,-181.87C1806.5,-185.15 1839.36,-188.95 1867.66,-192.22"/>
<polygon fill="#555555" stroke="#555555" points="1867.51,-194.67 1874.75,-193.04 1868.08,-189.8 1867.51,-194.67"/>
<text text-anchor="middle" x="1829" y="-192.2" font-family="Helvetica,sans-Serif" font-size="8.50" fill="#444444"> 1 layout</text>
</g>
<!-- solid -->
<g id="node15" class="node">
<title>solid</title>
<polygon fill="#f2f2f2" stroke="#888888" points="1981.5,-162 1978.5,-166 1957.5,-166 1954.5,-162 1890.5,-162 1890.5,-126 1981.5,-126 1981.5,-162"/>
<text text-anchor="middle" x="1936" y="-147" font-family="Helvetica,sans-Serif" font-size="10.00">solid</text>
<text text-anchor="middle" x="1936" y="-136" font-family="Helvetica,sans-Serif" font-size="10.00">OpenSCAD bin</text>
</g>
<!-- pack&#45;&gt;solid -->
<g id="edge17" class="edge">
<title>pack&#45;&gt;solid</title>
<path fill="none" stroke="#555555" d="M1778.12,-164.92C1811.77,-160.43 1851.72,-155.1 1882.89,-150.95"/>
<polygon fill="#555555" stroke="#555555" points="1883.59,-153.33 1890.21,-149.97 1882.95,-148.47 1883.59,-153.33"/>
<text text-anchor="middle" x="1829" y="-162.2" font-family="Helvetica,sans-Serif" font-size="8.50" fill="#444444"> 1 layout</text>
</g>
<!-- assign&#45;&gt;group -->
<g id="edge15" class="edge">
<title>assign&#45;&gt;group</title>
<path fill="none" stroke="#33475e" stroke-dasharray="5,2" d="M1639.32,-61.45C1603.43,-53.45 1559.5,-49.76 1523,-65 1494.82,-76.77 1471.16,-102.77 1455.84,-123.3"/>
<polygon fill="#33475e" stroke="#33475e" points="1453.68,-122.1 1451.55,-129.2 1457.64,-124.98 1453.68,-122.1"/>
<text text-anchor="start" x="1523" y="-76.2" font-family="Helvetica,sans-Serif" font-size="8.50" fill="#33475e"> infeasible: restrict</text>
<text text-anchor="start" x="1523" y="-67.2" font-family="Helvetica,sans-Serif" font-size="8.50" fill="#33475e"> admissible footprints</text>
</g>
<!-- map -->
<g id="node16" class="node">
<title>map</title>
<polygon fill="#f2f2f2" stroke="#888888" points="1975.5,-102 1972.5,-106 1951.5,-106 1948.5,-102 1896.5,-102 1896.5,-66 1975.5,-66 1975.5,-102"/>
<text text-anchor="middle" x="1936" y="-87" font-family="Helvetica,sans-Serif" font-size="10.00">drawer map</text>
<text text-anchor="middle" x="1936" y="-76" font-family="Helvetica,sans-Serif" font-size="10.00">(proposed)</text>
</g>
<!-- assign&#45;&gt;map -->
<g id="edge18" class="edge">
<title>assign&#45;&gt;map</title>
<path fill="none" stroke="#555555" d="M1783.05,-84C1817.98,-84 1858.71,-84 1889.21,-84"/>
<polygon fill="#555555" stroke="#555555" points="1889.34,-86.45 1896.34,-84 1889.34,-81.55 1889.34,-86.45"/>
<text text-anchor="middle" x="1829" y="-86.2" font-family="Helvetica,sans-Serif" font-size="8.50" fill="#444444"> placed bins</text>
</g>
<!-- drawers -->
<g id="node13" class="node">
<title>drawers</title>
<polygon fill="#f2f2f2" stroke="#888888" points="1480,-36 1477,-40 1456,-40 1453,-36 1392,-36 1392,0 1480,0 1480,-36"/>
<text text-anchor="middle" x="1436" y="-21" font-family="Helvetica,sans-Serif" font-size="10.00">drawer sizes</text>
<text text-anchor="middle" x="1436" y="-10" font-family="Helvetica,sans-Serif" font-size="10.00">given, in cells</text>
</g>
<!-- drawers&#45;&gt;assign -->
<g id="edge14" class="edge">
<title>drawers&#45;&gt;assign</title>
<path fill="none" stroke="#555555" d="M1480.01,-16.68C1516.65,-16.71 1570.31,-19.53 1615,-33 1633.52,-38.58 1652.5,-48.17 1668.45,-57.54"/>
<polygon fill="#555555" stroke="#555555" points="1667.37,-59.75 1674.63,-61.25 1669.89,-55.55 1667.37,-59.75"/>
</g>
<!-- l_pure -->
<g id="node17" class="node">
<title>l_pure</title>
<path fill="#e6f2e8" stroke="#888888" d="M2108,-102C2108,-102 2050,-102 2050,-102 2044,-102 2038,-96 2038,-90 2038,-90 2038,-78 2038,-78 2038,-72 2044,-66 2050,-66 2050,-66 2108,-66 2108,-66 2114,-66 2120,-72 2120,-78 2120,-78 2120,-90 2120,-90 2120,-96 2114,-102 2108,-102"/>
<text text-anchor="middle" x="2079" y="-81.8" font-family="Helvetica,sans-Serif" font-size="9.00">pure per&#45;item</text>
</g>
<!-- map&#45;&gt;l_pure -->
<!-- l_discrete -->
<g id="node18" class="node">
<title>l_discrete</title>
<path fill="#dee7f6" stroke="#888888" d="M2239,-102C2239,-102 2173,-102 2173,-102 2167,-102 2161,-96 2161,-90 2161,-90 2161,-78 2161,-78 2161,-72 2167,-66 2173,-66 2173,-66 2239,-66 2239,-66 2245,-66 2251,-72 2251,-78 2251,-78 2251,-90 2251,-90 2251,-96 2245,-102 2239,-102"/>
<text text-anchor="middle" x="2206" y="-81.8" font-family="Helvetica,sans-Serif" font-size="9.00">discrete search</text>
</g>
<!-- l_pure&#45;&gt;l_discrete -->
<!-- l_io -->
<g id="node19" class="node">
<title>l_io</title>
<path fill="#f2f2f2" stroke="#888888" d="M2364,-102C2364,-102 2304,-102 2304,-102 2298,-102 2292,-96 2292,-90 2292,-90 2292,-78 2292,-78 2292,-72 2298,-66 2304,-66 2304,-66 2364,-66 2364,-66 2370,-66 2376,-72 2376,-78 2376,-78 2376,-90 2376,-90 2376,-96 2370,-102 2364,-102"/>
<text text-anchor="middle" x="2334" y="-81.8" font-family="Helvetica,sans-Serif" font-size="9.00">input / output</text>
</g>
<!-- l_discrete&#45;&gt;l_io -->
</g>
</svg>
